<svg xmlns="http://www.w3.org/2000/svg" xmlns:xlink="http://www.w3.org/1999/xlink" version="1.1" class="marks" width="507" height="347" viewBox="0 0 507 347"><rect width="507" height="347" fill="white"/><g fill="none" stroke-miterlimit="10" transform="translate(58,10)"><g class="mark-group role-frame root" role="graphics-object" aria-roledescription="group mark container"><g transform="translate(0,0)"><path class="background" aria-hidden="true" d="M0.5,0.5h400v300h-400Z" stroke="#ddd"/><g><g class="mark-group role-axis" role="graphics-symbol" aria-roledescription="axis" aria-label="X-axis for a linear scale with values from 1,890 to 2,020"><g transform="translate(0.5,300.5)"><path class="background" aria-hidden="true" d="M0,0h0v0h0Z" pointer-events="none"/><g><g class="mark-rule role-axis-grid" pointer-events="none"><line transform="translate(0,-300)" x2="0" y2="300" stroke="#ddd" stroke-width="1" opacity="1"/><line transform="translate(31,-300)" x2="0" y2="300" stroke="#ddd" stroke-width="1" opacity="1"/><line transform="translate(62,-300)" x2="0" y2="300" stroke="#ddd" stroke-width="1" opacity="1"/><line transform="translate(92,-300)" x2="0" y2="300" stroke="#ddd" stroke-width="1" opacity="1"/><line transform="translate(123,-300)" x2="0" y2="300" stroke="#ddd" stroke-width="1" opacity="1"/><line transform="translate(154,-300)" x2="0" y2="300" stroke="#ddd" stroke-width="1" opacity="1"/><line transform="translate(185,-300)" x2="0" y2="300" stroke="#ddd" stroke-width="1" opacity="1"/><line transform="translate(215,-300)" x2="0" y2="300" stroke="#ddd" stroke-width="1" opacity="1"/><line transform="translate(246,-300)" x2="0" y2="300" stroke="#ddd" stroke-width="1" opacity="1"/><line transform="translate(277,-300)" x2="0" y2="300" stroke="#ddd" stroke-width="1" opacity="1"/><line transform="translate(308,-300)" x2="0" y2="300" stroke="#ddd" stroke-width="1" opacity="1"/><line transform="translate(338,-300)" x2="0" y2="300" stroke="#ddd" stroke-width="1" opacity="1"/><line transform="translate(369,-300)" x2="0" y2="300" stroke="#ddd" stroke-width="1" opacity="1"/><line transform="translate(400,-300)" x2="0" y2="300" stroke="#ddd" stroke-width="1" opacity="1"/></g></g><path class="foreground" aria-hidden="true" d="" pointer-events="none" display="none"/></g></g><g class="mark-group role-axis" role="graphics-symbol" aria-roledescription="axis" aria-label="Y-axis for a linear scale with values from 0 to 12,000"><g transform="translate(0.5,0.5)"><path class="background" aria-hidden="true" d="M0,0h0v0h0Z" pointer-events="none"/><g><g class="mark-rule role-axis-grid" pointer-events="none"><line transform="translate(0,300)" x2="400" y2="0" stroke="#ddd" stroke-width="1" opacity="1"/><line transform="translate(0,250)" x2="400" y2="0" stroke="#ddd" stroke-width="1" opacity="1"/><line transform="translate(0,200)" x2="400" y2="0" stroke="#ddd" stroke-width="1" opacity="1"/><line transform="translate(0,150)" x2="400" y2="0" stroke="#ddd" stroke-width="1" opacity="1"/><line transform="translate(0,100)" x2="400" y2="0" stroke="#ddd" stroke-width="1" opacity="1"/><line transform="translate(0,50)" x2="400" y2="0" stroke="#ddd" stroke-width="1" opacity="1"/><line transform="translate(0,0)" x2="400" y2="0" stroke="#ddd" stroke-width="1" opacity="1"/></g></g><path class="foreground" aria-hidden="true" d="" pointer-events="none" display="none"/></g></g><g class="mark-group role-axis" role="graphics-symbol" aria-roledescription="axis" aria-label="X-axis titled 'ano' for a linear scale with values from 1,890 to 2,020"><g transform="translate(0.5,300.5)"><path class="background" aria-hidden="true" d="M0,0h0v0h0Z" pointer-events="none"/><g><g class="mark-rule role-axis-tick" pointer-events="none"><line transform="translate(0,0)" x2="0" y2="5" stroke="#888" stroke-width="1" opacity="1"/><line transform="translate(31,0)" x2="0" y2="5" stroke="#888" stroke-width="1" opacity="1"/><line transform="translate(62,0)" x2="0" y2="5" stroke="#888" stroke-width="1" opacity="1"/><line transform="translate(92,0)" x2="0" y2="5" stroke="#888" stroke-width="1" opacity="1"/><line transform="translate(123,0)" x2="0" y2="5" stroke="#888" stroke-width="1" opacity="1"/><line transform="translate(154,0)" x2="0" y2="5" stroke="#888" stroke-width="1" opacity="1"/><line transform="translate(185,0)" x2="0" y2="5" stroke="#888" stroke-width="1" opacity="1"/><line transform="translate(215,0)" x2="0" y2="5" stroke="#888" stroke-width="1" opacity="1"/><line transform="translate(246,0)" x2="0" y2="5" stroke="#888" stroke-width="1" opacity="1"/><line transform="translate(277,0)" x2="0" y2="5" stroke="#888" stroke-width="1" opacity="1"/><line transform="translate(308,0)" x2="0" y2="5" stroke="#888" stroke-width="1" opacity="1"/><line transform="translate(338,0)" x2="0" y2="5" stroke="#888" stroke-width="1" opacity="1"/><line transform="translate(369,0)" x2="0" y2="5" stroke="#888" stroke-width="1" opacity="1"/><line transform="translate(400,0)" x2="0" y2="5" stroke="#888" stroke-width="1" opacity="1"/></g><g class="mark-text role-axis-label" pointer-events="none"><text text-anchor="start" transform="translate(0,15)" font-family="sans-serif" font-size="10px" fill="#000" opacity="1">1,890</text><text text-anchor="middle" transform="translate(30.76923076923077,15)" font-family="sans-serif" font-size="10px" fill="#000" opacity="0">1,900</text><text text-anchor="middle" transform="translate(61.53846153846154,15)" font-family="sans-serif" font-size="10px" fill="#000" opacity="1">1,910</text><text text-anchor="middle" transform="translate(92.3076923076923,15)" font-family="sans-serif" font-size="10px" fill="#000" opacity="0">1,920</text><text text-anchor="middle" transform="translate(123.07692307692308,15)" font-family="sans-serif" font-size="10px" fill="#000" opacity="1">1,930</text><text text-anchor="middle" transform="translate(153.84615384615387,15)" font-family="sans-serif" font-size="10px" fill="#000" opacity="0">1,940</text><text text-anchor="middle" transform="translate(184.6153846153846,15)" font-family="sans-serif" font-size="10px" fill="#000" opacity="1">1,950</text><text text-anchor="middle" transform="translate(215.3846153846154,15)" font-family="sans-serif" font-size="10px" fill="#000" opacity="0">1,960</text><text text-anchor="middle" transform="translate(246.15384615384616,15)" font-family="sans-serif" font-size="10px" fill="#000" opacity="1">1,970</text><text text-anchor="middle" transform="translate(276.9230769230769,15)" font-family="sans-serif" font-size="10px" fill="#000" opacity="0">1,980</text><text text-anchor="middle" transform="translate(307.69230769230774,15)" font-family="sans-serif" font-size="10px" fill="#000" opacity="1">1,990</text><text text-anchor="middle" transform="translate(338.46153846153845,15)" font-family="sans-serif" font-size="10px" fill="#000" opacity="0">2,000</text><text text-anchor="middle" transform="translate(369.2307692307692,15)" font-family="sans-serif" font-size="10px" fill="#000" opacity="1">2,010</text><text text-anchor="end" transform="translate(400,15)" font-family="sans-serif" font-size="10px" fill="#000" opacity="0">2,020</text></g><g class="mark-rule role-axis-domain" pointer-events="none"><line transform="translate(0,0)" x2="400" y2="0" stroke="#888" stroke-width="1" opacity="1"/></g><g class="mark-text role-axis-title" pointer-events="none"><text text-anchor="middle" transform="translate(200,30)" font-family="sans-serif" font-size="11px" font-weight="bold" fill="#000" opacity="1">ano</text></g></g><path class="foreground" aria-hidden="true" d="" pointer-events="none" display="none"/></g></g><g class="mark-group role-axis" role="graphics-symbol" aria-roledescription="axis" aria-label="Y-axis titled 'Count of Records' for a linear scale with values from 0 to 12,000"><g transform="translate(0.5,0.5)"><path class="background" aria-hidden="true" d="M0,0h0v0h0Z" pointer-events="none"/><g><g class="mark-rule role-axis-tick" pointer-events="none"><line transform="translate(0,300)" x2="-5" y2="0" stroke="#888" stroke-width="1" opacity="1"/><line transform="translate(0,250)" x2="-5" y2="0" stroke="#888" stroke-width="1" opacity="1"/><line transform="translate(0,200)" x2="-5" y2="0" stroke="#888" stroke-width="1" opacity="1"/><line transform="translate(0,150)" x2="-5" y2="0" stroke="#888" stroke-width="1" opacity="1"/><line transform="translate(0,100)" x2="-5" y2="0" stroke="#888" stroke-width="1" opacity="1"/><line transform="translate(0,50)" x2="-5" y2="0" stroke="#888" stroke-width="1" opacity="1"/><line transform="translate(0,0)" x2="-5" y2="0" stroke="#888" stroke-width="1" opacity="1"/></g><g class="mark-text role-axis-label" pointer-events="none"><text text-anchor="end" transform="translate(-7,303)" font-family="sans-serif" font-size="10px" fill="#000" opacity="1">0</text><text text-anchor="end" transform="translate(-7,253)" font-family="sans-serif" font-size="10px" fill="#000" opacity="1">2,000</text><text text-anchor="end" transform="translate(-7,203.00000000000003)" font-family="sans-serif" font-size="10px" fill="#000" opacity="1">4,000</text><text text-anchor="end" transform="translate(-7,153)" font-family="sans-serif" font-size="10px" fill="#000" opacity="1">6,000</text><text text-anchor="end" transform="translate(-7,103.00000000000001)" font-family="sans-serif" font-size="10px" fill="#000" opacity="1">8,000</text><text text-anchor="end" transform="translate(-7,52.999999999999986)" font-family="sans-serif" font-size="10px" fill="#000" opacity="1">10,000</text><text text-anchor="end" transform="translate(-7,3)" font-family="sans-serif" font-size="10px" fill="#000" opacity="1">12,000</text></g><g class="mark-rule role-axis-domain" pointer-events="none"><line transform="translate(0,300)" x2="0" y2="-300" stroke="#888" stroke-width="1" opacity="1"/></g><g class="mark-text role-axis-title" pointer-events="none"><text text-anchor="middle" transform="translate(-41.5859375,150) rotate(-90) translate(0,-2)" font-family="sans-serif" font-size="11px" font-weight="bold" fill="#000" opacity="1">Count of Records</text></g></g><path class="foreground" aria-hidden="true" d="" pointer-events="none" display="none"/></g></g><g class="mark-rect role-mark marks" role="graphics-symbol" aria-roledescription="rect mark container"><path d="M15.961538461538463,294.7h5v5.300000000000011h-5Z" fill="green"/><path d="M28.26923076923077,265.7h5v34.30000000000001h-5Z" fill="green"/><path d="M28.26923076923077,265.05h5v0.6499999999999773h-5Z" fill="orange"/><path d="M40.57692307692308,279.075h5v20.92500000000001h-5Z" fill="green"/><path d="M40.57692307692308,278.825h5v0.25h-5Z" fill="orange"/><path d="M46.73076923076923,277.2h5v22.80000000000001h-5Z" fill="green"/><path d="M46.73076923076923,276.95h5v0.25h-5Z" fill="orange"/><path d="M52.88461538461539,248.325h5v51.67500000000001h-5Z" fill="green"/><path d="M52.88461538461539,247.20000000000002h5v1.1249999999999716h-5Z" fill="orange"/><path d="M65.1923076923077,238.075h5v61.92500000000001h-5Z" fill="green"/><path d="M65.1923076923077,236.5h5v1.5749999999999886h-5Z" fill="orange"/><path d="M89.8076923076923,233.125h5v66.875h-5Z" fill="green"/><path d="M89.8076923076923,230.79999999999998h5v2.325000000000017h-5Z" fill="orange"/><path d="M102.11538461538463,211.975h5v88.025h-5Z" fill="green"/><path d="M102.11538461538463,207.15h5v4.824999999999989h-5Z" fill="orange"/><path d="M114.42307692307693,214.60000000000002h5v85.39999999999998h-5Z" fill="green"/><path d="M114.42307692307693,206h5v8.600000000000023h-5Z" fill="orange"/><path d="M126.73076923076923,250h5v50h-5Z" fill="green"/><path d="M126.73076923076923,244.42499999999998h5v5.575000000000017h-5Z" fill="orange"/><path d="M139.03846153846155,180.70000000000002h5v119.29999999999998h-5Z" fill="green"/><path d="M139.03846153846155,169.625h5v11.075000000000017h-5Z" fill="orange"/><path d="M175.96153846153848,184.45h5v115.55000000000001h-5Z" fill="green"/><path d="M175.96153846153848,171.34999999999997h5v13.100000000000023h-5Z" fill="orange"/><path d="M188.26923076923077,173.875h5v126.125h-5Z" fill="green"/><path d="M188.26923076923077,158.125h5v15.75h-5Z" fill="orange"/><path d="M200.57692307692307,207.9h5v92.1h-5Z" fill="green"/><path d="M200.57692307692307,195h5v12.900000000000006h-5Z" fill="orange"/><path d="M212.8846153846154,167.92499999999998h5v132.07500000000002h-5Z" fill="green"/><path d="M212.8846153846154,149h5v18.924999999999983h-5Z" fill="orange"/><path d="M225.19230769230768,142.775h5v22h-5Z" fill="orange"/><path d="M225.19230769230768,164.775h5v135.225h-5Z" fill="green"/><path d="M237.5,155.9h5v144.1h-5Z" fill="green"/><path d="M237.5,131.04999999999998h5v24.850000000000023h-5Z" fill="orange"/><path d="M249.8076923076923,95.80000000000001h5v31.649999999999977h-5Z" fill="orange"/><path d="M249.8076923076923,127.44999999999999h5v172.55h-5Z" fill="green"/><path d="M262.1153846153846,156.075h5v143.925h-5Z" fill="green"/><path d="M262.1153846153846,118.80000000000001h5v37.27499999999998h-5Z" fill="orange"/><path d="M274.4230769230769,175.025h5v124.975h-5Z" fill="green"/><path d="M274.4230769230769,141.075h5v33.95000000000002h-5Z" fill="orange"/><path d="M286.7307692307692,143.65h5v156.35h-5Z" fill="green"/><path d="M286.7307692307692,97.49999999999999h5v46.15000000000002h-5Z" fill="orange"/><path d="M299.03846153846155,114.025h5v185.975h-5Z" fill="green"/><path d="M299.03846153846155,51.075h5v62.95h-5Z" fill="orange"/><path d="M311.34615384615387,98.69999999999999h5v201.3h-5Z" fill="green"/><path d="M311.34615384615387,17.800000000000004h5v80.89999999999998h-5Z" fill="orange"/><path d="M317.5,269.15h5v30.850000000000023h-5Z" fill="green"/><path d="M317.5,256.1h5v13.049999999999955h-5Z" fill="orange"/><path d="M323.65384615384613,128.64999999999998h5v171.35000000000002h-5Z" fill="green"/><path d="M323.65384615384613,39.77500000000001h5v88.87499999999997h-5Z" fill="orange"/><path d="M329.8076923076923,244.925h5v19.75h-5Z" fill="orange"/><path d="M329.8076923076923,264.675h5v35.32499999999999h-5Z" fill="green"/><path d="M335.96153846153845,134.8h5v165.2h-5Z" fill="green"/><path d="M335.96153846153845,32.250000000000014h5v102.55h-5Z" fill="orange"/><path d="M342.11538461538464,261.425h5v38.57499999999999h-5Z" fill="green"/><path d="M342.11538461538464,239.25h5v22.17500000000001h-5Z" fill="orange"/><path d="M348.2692307692308,33.69999999999999h5v108.90000000000003h-5Z" fill="orange"/><path d="M348.2692307692308,142.60000000000002h5v157.39999999999998h-5Z" fill="green"/><path d="M354.42307692307696,237.22500000000002h5v23.92500000000001h-5Z" fill="orange"/><path d="M354.42307692307696,261.15000000000003h5v38.849999999999966h-5Z" fill="green"/><path d="M360.5769230769231,141.825h5v158.175h-5Z" fill="green"/><path d="M360.5769230769231,25.275000000000013h5v116.54999999999998h-5Z" fill="orange"/><path d="M366.7307692307692,236.2h5v25.849999999999966h-5Z" fill="orange"/><path d="M366.7307692307692,262.04999999999995h5v37.950000000000045h-5Z" fill="green"/><path d="M372.88461538461536,152.8h5v147.2h-5Z" fill="green"/><path d="M372.88461538461536,35.62500000000001h5v117.17500000000001h-5Z" fill="orange"/><path d="M379.03846153846155,229.475h5v28.075000000000017h-5Z" fill="orange"/><path d="M379.03846153846155,257.55h5v42.44999999999999h-5Z" fill="green"/><path d="M385.1923076923077,146h5v154h-5Z" fill="green"/><path d="M385.1923076923077,19.499999999999986h5v126.50000000000001h-5Z" fill="orange"/></g><g class="mark-group role-legend" role="graphics-symbol" aria-roledescription="legend" aria-label="Symbol legend titled 'sexo' for fill color with 2 values: F, M"><g transform="translate(418,0)"><path class="background" aria-hidden="true" d="M0,0h26v40h-26Z" pointer-events="none"/><g><g class="mark-group role-legend-entry"><g transform="translate(0,16)"><path class="background" aria-hidden="true" d="M0,0h0v0h0Z" pointer-events="none"/><g><g class="mark-group role-scope" role="graphics-object" aria-roledescription="group mark container"><g transform="translate(0,0)"><path class="background" aria-hidden="true" d="M0,0h24.330078125v11h-24.330078125Z" pointer-events="none" opacity="1"/><g><g class="mark-symbol role-legend-symbol" pointer-events="none"><path transform="translate(6,6)" d="M-5,-5h10v10h-10Z" fill="orange" stroke-width="1.5" opacity="1"/></g><g class="mark-text role-legend-label" pointer-events="none"><text text-anchor="start" transform="translate(16,9)" font-family="sans-serif" font-size="10px" fill="#000" opacity="1">F</text></g></g><path class="foreground" aria-hidden="true" d="" pointer-events="none" display="none"/></g><g transform="translate(0,13)"><path class="background" aria-hidden="true" d="M0,0h24.330078125v11h-24.330078125Z" pointer-events="none" opacity="1"/><g><g class="mark-symbol role-legend-symbol" pointer-events="none"><path transform="translate(6,6)" d="M-5,-5h10v10h-10Z" fill="green" stroke-width="1.5" opacity="1"/></g><g class="mark-text role-legend-label" pointer-events="none"><text text-anchor="start" transform="translate(16,9)" font-family="sans-serif" font-size="10px" fill="#000" opacity="1">M</text></g></g><path class="foreground" aria-hidden="true" d="" pointer-events="none" display="none"/></g></g></g><path class="foreground" aria-hidden="true" d="" pointer-events="none" display="none"/></g></g><g class="mark-text role-legend-title" pointer-events="none"><text text-anchor="start" transform="translate(0,9)" font-family="sans-serif" font-size="11px" font-weight="bold" fill="#000" opacity="1">sexo</text></g></g><path class="foreground" aria-hidden="true" d="" pointer-events="none" display="none"/></g></g></g><path class="foreground" aria-hidden="true" d="" display="none"/></g></g></g></svg>