<svg xmlns="http://www.w3.org/2000/svg" xmlns:xlink="http://www.w3.org/1999/xlink" version="1.1" class="marks" width="464" height="347" viewBox="0 0 464 347"><rect width="464" height="347" fill="white"/><g fill="none" stroke-miterlimit="10" transform="translate(58,10)"><g class="mark-group role-frame root" role="graphics-object" aria-roledescription="group mark container"><g transform="translate(0,0)"><path class="background" aria-hidden="true" d="M0.5,0.5h400v300h-400Z" stroke="#ddd"/><g><g class="mark-group role-axis" role="graphics-symbol" aria-roledescription="axis" aria-label="X-axis for a linear scale with values from 0 to 100"><g transform="translate(0.5,300.5)"><path class="background" aria-hidden="true" d="M0,0h0v0h0Z" pointer-events="none"/><g><g class="mark-rule role-axis-grid" pointer-events="none"><line transform="translate(0,-300)" x2="0" y2="300" stroke="#ddd" stroke-width="1" opacity="1"/><line transform="translate(40,-300)" x2="0" y2="300" stroke="#ddd" stroke-width="1" opacity="1"/><line transform="translate(80,-300)" x2="0" y2="300" stroke="#ddd" stroke-width="1" opacity="1"/><line transform="translate(120,-300)" x2="0" y2="300" stroke="#ddd" stroke-width="1" opacity="1"/><line transform="translate(160,-300)" x2="0" y2="300" stroke="#ddd" stroke-width="1" opacity="1"/><line transform="translate(200,-300)" x2="0" y2="300" stroke="#ddd" stroke-width="1" opacity="1"/><line transform="translate(240,-300)" x2="0" y2="300" stroke="#ddd" stroke-width="1" opacity="1"/><line transform="translate(280,-300)" x2="0" y2="300" stroke="#ddd" stroke-width="1" opacity="1"/><line transform="translate(320,-300)" x2="0" y2="300" stroke="#ddd" stroke-width="1" opacity="1"/><line transform="translate(360,-300)" x2="0" y2="300" stroke="#ddd" stroke-width="1" opacity="1"/><line transform="translate(400,-300)" x2="0" y2="300" stroke="#ddd" stroke-width="1" opacity="1"/></g></g><path class="foreground" aria-hidden="true" d="" pointer-events="none" display="none"/></g></g><g class="mark-group role-axis" role="graphics-symbol" aria-roledescription="axis" aria-label="Y-axis for a linear scale with values from 0 to 16,000"><g transform="translate(0.5,0.5)"><path class="background" aria-hidden="true" d="M0,0h0v0h0Z" pointer-events="none"/><g><g class="mark-rule role-axis-grid" pointer-events="none"><line transform="translate(0,300)" x2="400" y2="0" stroke="#ddd" stroke-width="1" opacity="1"/><line transform="translate(0,263)" x2="400" y2="0" stroke="#ddd" stroke-width="1" opacity="1"/><line transform="translate(0,225)" x2="400" y2="0" stroke="#ddd" stroke-width="1" opacity="1"/><line transform="translate(0,188)" x2="400" y2="0" stroke="#ddd" stroke-width="1" opacity="1"/><line transform="translate(0,150)" x2="400" y2="0" stroke="#ddd" stroke-width="1" opacity="1"/><line transform="translate(0,113)" x2="400" y2="0" stroke="#ddd" stroke-width="1" opacity="1"/><line transform="translate(0,75)" x2="400" y2="0" stroke="#ddd" stroke-width="1" opacity="1"/><line transform="translate(0,38)" x2="400" y2="0" stroke="#ddd" stroke-width="1" opacity="1"/><line transform="translate(0,0)" x2="400" y2="0" stroke="#ddd" stroke-width="1" opacity="1"/></g></g><path class="foreground" aria-hidden="true" d="" pointer-events="none" display="none"/></g></g><g class="mark-group role-axis" role="graphics-symbol" aria-roledescription="axis" aria-label="X-axis titled 'idade' for a linear scale with values from 0 to 100"><g transform="translate(0.5,300.5)"><path class="background" aria-hidden="true" d="M0,0h0v0h0Z" pointer-events="none"/><g><g class="mark-rule role-axis-tick" pointer-events="none"><line transform="translate(0,0)" x2="0" y2="5" stroke="#888" stroke-width="1" opacity="1"/><line transform="translate(40,0)" x2="0" y2="5" stroke="#888" stroke-width="1" opacity="1"/><line transform="translate(80,0)" x2="0" y2="5" stroke="#888" stroke-width="1" opacity="1"/><line transform="translate(120,0)" x2="0" y2="5" stroke="#888" stroke-width="1" opacity="1"/><line transform="translate(160,0)" x2="0" y2="5" stroke="#888" stroke-width="1" opacity="1"/><line transform="translate(200,0)" x2="0" y2="5" stroke="#888" stroke-width="1" opacity="1"/><line transform="translate(240,0)" x2="0" y2="5" stroke="#888" stroke-width="1" opacity="1"/><line transform="translate(280,0)" x2="0" y2="5" stroke="#888" stroke-width="1" opacity="1"/><line transform="translate(320,0)" x2="0" y2="5" stroke="#888" stroke-width="1" opacity="1"/><line transform="translate(360,0)" x2="0" y2="5" stroke="#888" stroke-width="1" opacity="1"/><line transform="translate(400,0)" x2="0" y2="5" stroke="#888" stroke-width="1" opacity="1"/></g><g class="mark-text role-axis-label" pointer-events="none"><text text-anchor="start" transform="translate(0,15)" font-family="sans-serif" font-size="10px" fill="#000" opacity="1">0</text><text text-anchor="middle" transform="translate(40,15)" font-family="sans-serif" font-size="10px" fill="#000" opacity="1">10</text><text text-anchor="middle" transform="translate(80,15)" font-family="sans-serif" font-size="10px" fill="#000" opacity="1">20</text><text text-anchor="middle" transform="translate(120,15)" font-family="sans-serif" font-size="10px" fill="#000" opacity="1">30</text><text text-anchor="middle" transform="translate(160,15)" font-family="sans-serif" font-size="10px" fill="#000" opacity="1">40</text><text text-anchor="middle" transform="translate(200,15)" font-family="sans-serif" font-size="10px" fill="#000" opacity="1">50</text><text text-anchor="middle" transform="translate(240,15)" font-family="sans-serif" font-size="10px" fill="#000" opacity="1">60</text><text text-anchor="middle" transform="translate(280,15)" font-family="sans-serif" font-size="10px" fill="#000" opacity="1">70</text><text text-anchor="middle" transform="translate(320,15)" font-family="sans-serif" font-size="10px" fill="#000" opacity="1">80</text><text text-anchor="middle" transform="translate(360,15)" font-family="sans-serif" font-size="10px" fill="#000" opacity="1">90</text><text text-anchor="end" transform="translate(400,15)" font-family="sans-serif" font-size="10px" fill="#000" opacity="1">100</text></g><g class="mark-rule role-axis-domain" pointer-events="none"><line transform="translate(0,0)" x2="400" y2="0" stroke="#888" stroke-width="1" opacity="1"/></g><g class="mark-text role-axis-title" pointer-events="none"><text text-anchor="middle" transform="translate(200,30)" font-family="sans-serif" font-size="11px" font-weight="bold" fill="#000" opacity="1">idade</text></g></g><path class="foreground" aria-hidden="true" d="" pointer-events="none" display="none"/></g></g><g class="mark-group role-axis" role="graphics-symbol" aria-roledescription="axis" aria-label="Y-axis titled 'Count of Records' for a linear scale with values from 0 to 16,000"><g transform="translate(0.5,0.5)"><path class="background" aria-hidden="true" d="M0,0h0v0h0Z" pointer-events="none"/><g><g class="mark-rule role-axis-tick" pointer-events="none"><line transform="translate(0,300)" x2="-5" y2="0" stroke="#888" stroke-width="1" opacity="1"/><line transform="translate(0,263)" x2="-5" y2="0" stroke="#888" stroke-width="1" opacity="1"/><line transform="translate(0,225)" x2="-5" y2="0" stroke="#888" stroke-width="1" opacity="1"/><line transform="translate(0,188)" x2="-5" y2="0" stroke="#888" stroke-width="1" opacity="1"/><line transform="translate(0,150)" x2="-5" y2="0" stroke="#888" stroke-width="1" opacity="1"/><line transform="translate(0,113)" x2="-5" y2="0" stroke="#888" stroke-width="1" opacity="1"/><line transform="translate(0,75)" x2="-5" y2="0" stroke="#888" stroke-width="1" opacity="1"/><line transform="translate(0,38)" x2="-5" y2="0" stroke="#888" stroke-width="1" opacity="1"/><line transform="translate(0,0)" x2="-5" y2="0" stroke="#888" stroke-width="1" opacity="1"/></g><g class="mark-text role-axis-label" pointer-events="none"><text text-anchor="end" transform="translate(-7,303)" font-family="sans-serif" font-size="10px" fill="#000" opacity="1">0</text><text text-anchor="end" transform="translate(-7,265.5)" font-family="sans-serif" font-size="10px" fill="#000" opacity="1">2,000</text><text text-anchor="end" transform="translate(-7,228)" font-family="sans-serif" font-size="10px" fill="#000" opacity="1">4,000</text><text text-anchor="end" transform="translate(-7,190.5)" font-family="sans-serif" font-size="10px" fill="#000" opacity="1">6,000</text><text text-anchor="end" transform="translate(-7,153)" font-family="sans-serif" font-size="10px" fill="#000" opacity="1">8,000</text><text text-anchor="end" transform="translate(-7,115.5)" font-family="sans-serif" font-size="10px" fill="#000" opacity="1">10,000</text><text text-anchor="end" transform="translate(-7,78)" font-family="sans-serif" font-size="10px" fill="#000" opacity="1">12,000</text><text text-anchor="end" transform="translate(-7,40.5)" font-family="sans-serif" font-size="10px" fill="#000" opacity="1">14,000</text><text text-anchor="end" transform="translate(-7,3)" font-family="sans-serif" font-size="10px" fill="#000" opacity="1">16,000</text></g><g class="mark-rule role-axis-domain" pointer-events="none"><line transform="translate(0,300)" x2="0" y2="-300" stroke="#888" stroke-width="1" opacity="1"/></g><g class="mark-text role-axis-title" pointer-events="none"><text text-anchor="middle" transform="translate(-41.5859375,150) rotate(-90) translate(0,-2)" font-family="sans-serif" font-size="11px" font-weight="bold" fill="#000" opacity="1">Count of Records</text></g></g><path class="foreground" aria-hidden="true" d="" pointer-events="none" display="none"/></g></g><g class="mark-rect role-mark marks" role="graphics-symbol" aria-roledescription="rect mark container"><path d="M85.5,23.906250000000007h5v276.09375h-5Z" fill="firebrick"/><path d="M89.5,7.874999999999998h5v292.125h-5Z" fill="firebrick"/><path d="M81.5,53.88750000000001h5v246.11249999999998h-5Z" fill="firebrick"/><path d="M113.49999999999999,138.37500000000003h5v161.62499999999997h-5Z" fill="firebrick"/><path d="M69.5,210.24375h5v89.75625h-5Z" fill="firebrick"/><path d="M93.5,14.324999999999989h5v285.675h-5Z" fill="firebrick"/><path d="M121.5,194.0625h5v105.9375h-5Z" fill="firebrick"/><path d="M37.5,299.98125h5v0.01875000000001137h-5Z" fill="firebrick"/><path d="M65.5,245.88750000000002h5v54.11249999999998h-5Z" fill="firebrick"/><path d="M105.5,75.7125h5v224.2875h-5Z" fill="firebrick"/><path d="M109.50000000000001,106.74374999999999h5v193.25625000000002h-5Z" fill="firebrick"/><path d="M97.5,30.543749999999992h5v269.45625h-5Z" fill="firebrick"/><path d="M197.5,296.75625h5v3.2437499999999773h-5Z" fill="firebrick"/><path d="M101.5,54.431250000000006h5v245.56875h-5Z" fill="firebrick"/><path d="M137.5,257.19375h5v42.80624999999998h-5Z" fill="firebrick"/><path d="M77.5,109.44375h5v190.55625h-5Z" fill="firebrick"/><path d="M149.5,278.38124999999997h5v21.618750000000034h-5Z" fill="firebrick"/><path d="M133.5,245.4h5v54.599999999999994h-5Z" fill="firebrick"/><path d="M157.5,283.91249999999997h5v16.087500000000034h-5Z" fill="firebrick"/><path d="M125.5,212.55h5v87.44999999999999h-5Z" fill="firebrick"/><path d="M177.5,293.2125h5v6.787500000000023h-5Z" fill="firebrick"/><path d="M193.5,295.70625h5v4.293749999999989h-5Z" fill="firebrick"/><path d="M141.5,265.81874999999997h5v34.181250000000034h-5Z" fill="firebrick"/><path d="M61.5,267.05625000000003h5v32.943749999999966h-5Z" fill="firebrick"/><path d="M73.5,161.11875h5v138.88125h-5Z" fill="firebrick"/><path d="M181.5,294.16875h5v5.831250000000011h-5Z" fill="firebrick"/><path d="M281.5,299.7h5v0.30000000000001137h-5Z" fill="firebrick"/><path d="M189.5,295.275h5v4.725000000000023h-5Z" fill="firebrick"/><path d="M169.5,290.4375h5v9.5625h-5Z" fill="firebrick"/><path d="M153.5,281.475h5v18.524999999999977h-5Z" fill="firebrick"/><path d="M129.5,232.3125h5v67.6875h-5Z" fill="firebrick"/><path d="M57.5,282.76875h5v17.23124999999999h-5Z" fill="firebrick"/><path d="M209.5,297.825h5v2.1750000000000114h-5Z" fill="firebrick"/><path d="M229.49999999999997,298.9875h5v1.0124999999999886h-5Z" fill="firebrick"/><path d="M165.5,289.2h5v10.800000000000011h-5Z" fill="firebrick"/><path d="M173.5,291.225h5v8.774999999999977h-5Z" fill="firebrick"/><path d="M185.5,294.9375h5v5.0625h-5Z" fill="firebrick"/><path d="M161.5,287.77500000000003h5v12.224999999999966h-5Z" fill="firebrick"/><path d="M145.5,273.675h5v26.32499999999999h-5Z" fill="firebrick"/><path d="M117.5,166.23749999999998h5v133.76250000000002h-5Z" fill="firebrick"/><path d="M249.5,299.3625h5v0.6374999999999886h-5Z" fill="firebrick"/><path d="M221.50000000000003,298.51875h5v1.4812499999999886h-5Z" fill="firebrick"/><path d="M53.50000000000001,293.56875h5v6.431249999999977h-5Z" fill="firebrick"/><path d="M205.5,297.2625h5v2.7375000000000114h-5Z" fill="firebrick"/><path d="M213.5,298.0875h5v1.9125000000000227h-5Z" fill="firebrick"/><path d="M201.5,297.46875h5v2.53125h-5Z" fill="firebrick"/><path d="M237.5,299.02500000000003h5v0.9749999999999659h-5Z" fill="firebrick"/><path d="M225.49999999999997,299.08125h5v0.9187499999999886h-5Z" fill="firebrick"/><path d="M253.5,299.71875h5v0.28125h-5Z" fill="firebrick"/><path d="M217.50000000000003,298.725h5v1.2749999999999773h-5Z" fill="firebrick"/><path d="M241.5,299.34375h5v0.65625h-5Z" fill="firebrick"/><path d="M233.5,298.93125h5v1.0687500000000227h-5Z" fill="firebrick"/><path d="M257.5,299.47499999999997h5v0.5250000000000341h-5Z" fill="firebrick"/><path d="M285.5,299.79375h5v0.20625000000001137h-5Z" fill="firebrick"/><path d="M45.5,299.49375000000003h5v0.5062499999999659h-5Z" fill="firebrick"/><path d="M49.5,298.125h5v1.875h-5Z" fill="firebrick"/><path d="M273.5,299.75625h5v0.24374999999997726h-5Z" fill="firebrick"/><path d="M269.5,299.775h5v0.22500000000002274h-5Z" fill="firebrick"/><path d="M41.5,299.8125h5v0.1875h-5Z" fill="firebrick"/><path d="M261.5,299.625h5v0.375h-5Z" fill="firebrick"/><path d="M289.5,299.925h5v0.07499999999998863h-5Z" fill="firebrick"/><path d="M245.5,299.34375h5v0.65625h-5Z" fill="firebrick"/><path d="M265.5,299.64375h5v0.35624999999998863h-5Z" fill="firebrick"/><path d="M297.5,299.9625h5v0.03750000000002274h-5Z" fill="firebrick"/><path d="M293.5,299.90625h5v0.09375h-5Z" fill="firebrick"/><path d="M321.5,299.9625h5v0.03750000000002274h-5Z" fill="firebrick"/><path d="M317.5,299.98125h5v0.01875000000001137h-5Z" fill="firebrick"/><path d="M385.5,299.98125h5v0.01875000000001137h-5Z" fill="firebrick"/><path d="M277.5,299.83125h5v0.16874999999998863h-5Z" fill="firebrick"/><path d="M301.5,299.925h5v0.07499999999998863h-5Z" fill="firebrick"/><path d="M349.5,299.98125h5v0.01875000000001137h-5Z" fill="firebrick"/><path d="M381.5,299.98125h5v0.01875000000001137h-5Z" fill="firebrick"/><path d="M305.5,299.98125h5v0.01875000000001137h-5Z" fill="firebrick"/><path d="M333.5,299.98125h5v0.01875000000001137h-5Z" fill="firebrick"/></g></g><path class="foreground" aria-hidden="true" d="" display="none"/></g></g></g></svg>