<svg xmlns="http://www.w3.org/2000/svg" xmlns:xlink="http://www.w3.org/1999/xlink" version="1.1" class="marks" width="490" height="347" viewBox="0 0 490 347"><rect width="490" height="347" fill="white"/><g fill="none" stroke-miterlimit="10" transform="translate(41,10)"><g class="mark-group role-frame root" role="graphics-object" aria-roledescription="group mark container"><g transform="translate(0,0)"><path class="background" aria-hidden="true" d="M0.5,0.5h400v300h-400Z" stroke="#ddd"/><g><g class="mark-group role-axis" role="graphics-symbol" aria-roledescription="axis" aria-label="X-axis for a linear scale with values from 1,890 to 2,020"><g transform="translate(0.5,300.5)"><path class="background" aria-hidden="true" d="M0,0h0v0h0Z" pointer-events="none"/><g><g class="mark-rule role-axis-grid" pointer-events="none"><line transform="translate(0,-300)" x2="0" y2="300" stroke="#ddd" stroke-width="1" opacity="1"/><line transform="translate(31,-300)" x2="0" y2="300" stroke="#ddd" stroke-width="1" opacity="1"/><line transform="translate(62,-300)" x2="0" y2="300" stroke="#ddd" stroke-width="1" opacity="1"/><line transform="translate(92,-300)" x2="0" y2="300" stroke="#ddd" stroke-width="1" opacity="1"/><line transform="translate(123,-300)" x2="0" y2="300" stroke="#ddd" stroke-width="1" opacity="1"/><line transform="translate(154,-300)" x2="0" y2="300" stroke="#ddd" stroke-width="1" opacity="1"/><line transform="translate(185,-300)" x2="0" y2="300" stroke="#ddd" stroke-width="1" opacity="1"/><line transform="translate(215,-300)" x2="0" y2="300" stroke="#ddd" stroke-width="1" opacity="1"/><line transform="translate(246,-300)" x2="0" y2="300" stroke="#ddd" stroke-width="1" opacity="1"/><line transform="translate(277,-300)" x2="0" y2="300" stroke="#ddd" stroke-width="1" opacity="1"/><line transform="translate(308,-300)" x2="0" y2="300" stroke="#ddd" stroke-width="1" opacity="1"/><line transform="translate(338,-300)" x2="0" y2="300" stroke="#ddd" stroke-width="1" opacity="1"/><line transform="translate(369,-300)" x2="0" y2="300" stroke="#ddd" stroke-width="1" opacity="1"/><line transform="translate(400,-300)" x2="0" y2="300" stroke="#ddd" stroke-width="1" opacity="1"/></g></g><path class="foreground" aria-hidden="true" d="" pointer-events="none" display="none"/></g></g><g class="mark-group role-axis" role="graphics-symbol" aria-roledescription="axis" aria-label="Y-axis for a linear scale with values from 0.0 to 1.0"><g transform="translate(0.5,0.5)"><path class="background" aria-hidden="true" d="M0,0h0v0h0Z" pointer-events="none"/><g><g class="mark-rule role-axis-grid" pointer-events="none"><line transform="translate(0,300)" x2="400" y2="0" stroke="#ddd" stroke-width="1" opacity="1"/><line transform="translate(0,270)" x2="400" y2="0" stroke="#ddd" stroke-width="1" opacity="1"/><line transform="translate(0,240)" x2="400" y2="0" stroke="#ddd" stroke-width="1" opacity="1"/><line transform="translate(0,210)" x2="400" y2="0" stroke="#ddd" stroke-width="1" opacity="1"/><line transform="translate(0,180)" x2="400" y2="0" stroke="#ddd" stroke-width="1" opacity="1"/><line transform="translate(0,150)" x2="400" y2="0" stroke="#ddd" stroke-width="1" opacity="1"/><line transform="translate(0,120)" x2="400" y2="0" stroke="#ddd" stroke-width="1" opacity="1"/><line transform="translate(0,90)" x2="400" y2="0" stroke="#ddd" stroke-width="1" opacity="1"/><line transform="translate(0,60)" x2="400" y2="0" stroke="#ddd" stroke-width="1" opacity="1"/><line transform="translate(0,30)" x2="400" y2="0" stroke="#ddd" stroke-width="1" opacity="1"/><line transform="translate(0,0)" x2="400" y2="0" stroke="#ddd" stroke-width="1" opacity="1"/></g></g><path class="foreground" aria-hidden="true" d="" pointer-events="none" display="none"/></g></g><g class="mark-group role-axis" role="graphics-symbol" aria-roledescription="axis" aria-label="X-axis titled 'ano' for a linear scale with values from 1,890 to 2,020"><g transform="translate(0.5,300.5)"><path class="background" aria-hidden="true" d="M0,0h0v0h0Z" pointer-events="none"/><g><g class="mark-rule role-axis-tick" pointer-events="none"><line transform="translate(0,0)" x2="0" y2="5" stroke="#888" stroke-width="1" opacity="1"/><line transform="translate(31,0)" x2="0" y2="5" stroke="#888" stroke-width="1" opacity="1"/><line transform="translate(62,0)" x2="0" y2="5" stroke="#888" stroke-width="1" opacity="1"/><line transform="translate(92,0)" x2="0" y2="5" stroke="#888" stroke-width="1" opacity="1"/><line transform="translate(123,0)" x2="0" y2="5" stroke="#888" stroke-width="1" opacity="1"/><line transform="translate(154,0)" x2="0" y2="5" stroke="#888" stroke-width="1" opacity="1"/><line transform="translate(185,0)" x2="0" y2="5" stroke="#888" stroke-width="1" opacity="1"/><line transform="translate(215,0)" x2="0" y2="5" stroke="#888" stroke-width="1" opacity="1"/><line transform="translate(246,0)" x2="0" y2="5" stroke="#888" stroke-width="1" opacity="1"/><line transform="translate(277,0)" x2="0" y2="5" stroke="#888" stroke-width="1" opacity="1"/><line transform="translate(308,0)" x2="0" y2="5" stroke="#888" stroke-width="1" opacity="1"/><line transform="translate(338,0)" x2="0" y2="5" stroke="#888" stroke-width="1" opacity="1"/><line transform="translate(369,0)" x2="0" y2="5" stroke="#888" stroke-width="1" opacity="1"/><line transform="translate(400,0)" x2="0" y2="5" stroke="#888" stroke-width="1" opacity="1"/></g><g class="mark-text role-axis-label" pointer-events="none"><text text-anchor="start" transform="translate(0,15)" font-family="sans-serif" font-size="10px" fill="#000" opacity="1">1,890</text><text text-anchor="middle" transform="translate(30.76923076923077,15)" font-family="sans-serif" font-size="10px" fill="#000" opacity="0">1,900</text><text text-anchor="middle" transform="translate(61.53846153846154,15)" font-family="sans-serif" font-size="10px" fill="#000" opacity="1">1,910</text><text text-anchor="middle" transform="translate(92.3076923076923,15)" font-family="sans-serif" font-size="10px" fill="#000" opacity="0">1,920</text><text text-anchor="middle" transform="translate(123.07692307692308,15)" font-family="sans-serif" font-size="10px" fill="#000" opacity="1">1,930</text><text text-anchor="middle" transform="translate(153.84615384615387,15)" font-family="sans-serif" font-size="10px" fill="#000" opacity="0">1,940</text><text text-anchor="middle" transform="translate(184.6153846153846,15)" font-family="sans-serif" font-size="10px" fill="#000" opacity="1">1,950</text><text text-anchor="middle" transform="translate(215.3846153846154,15)" font-family="sans-serif" font-size="10px" fill="#000" opacity="0">1,960</text><text text-anchor="middle" transform="translate(246.15384615384616,15)" font-family="sans-serif" font-size="10px" fill="#000" opacity="1">1,970</text><text text-anchor="middle" transform="translate(276.9230769230769,15)" font-family="sans-serif" font-size="10px" fill="#000" opacity="0">1,980</text><text text-anchor="middle" transform="translate(307.69230769230774,15)" font-family="sans-serif" font-size="10px" fill="#000" opacity="1">1,990</text><text text-anchor="middle" transform="translate(338.46153846153845,15)" font-family="sans-serif" font-size="10px" fill="#000" opacity="0">2,000</text><text text-anchor="middle" transform="translate(369.2307692307692,15)" font-family="sans-serif" font-size="10px" fill="#000" opacity="1">2,010</text><text text-anchor="end" transform="translate(400,15)" font-family="sans-serif" font-size="10px" fill="#000" opacity="0">2,020</text></g><g class="mark-rule role-axis-domain" pointer-events="none"><line transform="translate(0,0)" x2="400" y2="0" stroke="#888" stroke-width="1" opacity="1"/></g><g class="mark-text role-axis-title" pointer-events="none"><text text-anchor="middle" transform="translate(200,30)" font-family="sans-serif" font-size="11px" font-weight="bold" fill="#000" opacity="1">ano</text></g></g><path class="foreground" aria-hidden="true" d="" pointer-events="none" display="none"/></g></g><g class="mark-group role-axis" role="graphics-symbol" aria-roledescription="axis" aria-label="Y-axis titled 'Count of Records' for a linear scale with values from 0.0 to 1.0"><g transform="translate(0.5,0.5)"><path class="background" aria-hidden="true" d="M0,0h0v0h0Z" pointer-events="none"/><g><g class="mark-rule role-axis-tick" pointer-events="none"><line transform="translate(0,300)" x2="-5" y2="0" stroke="#888" stroke-width="1" opacity="1"/><line transform="translate(0,270)" x2="-5" y2="0" stroke="#888" stroke-width="1" opacity="1"/><line transform="translate(0,240)" x2="-5" y2="0" stroke="#888" stroke-width="1" opacity="1"/><line transform="translate(0,210)" x2="-5" y2="0" stroke="#888" stroke-width="1" opacity="1"/><line transform="translate(0,180)" x2="-5" y2="0" stroke="#888" stroke-width="1" opacity="1"/><line transform="translate(0,150)" x2="-5" y2="0" stroke="#888" stroke-width="1" opacity="1"/><line transform="translate(0,120)" x2="-5" y2="0" stroke="#888" stroke-width="1" opacity="1"/><line transform="translate(0,90)" x2="-5" y2="0" stroke="#888" stroke-width="1" opacity="1"/><line transform="translate(0,60)" x2="-5" y2="0" stroke="#888" stroke-width="1" opacity="1"/><line transform="translate(0,30)" x2="-5" y2="0" stroke="#888" stroke-width="1" opacity="1"/><line transform="translate(0,0)" x2="-5" y2="0" stroke="#888" stroke-width="1" opacity="1"/></g><g class="mark-text role-axis-label" pointer-events="none"><text text-anchor="end" transform="translate(-7,303)" font-family="sans-serif" font-size="10px" fill="#000" opacity="1">0.0</text><text text-anchor="end" transform="translate(-7,273)" font-family="sans-serif" font-size="10px" fill="#000" opacity="1">0.1</text><text text-anchor="end" transform="translate(-7,243)" font-family="sans-serif" font-size="10px" fill="#000" opacity="1">0.2</text><text text-anchor="end" transform="translate(-7,213)" font-family="sans-serif" font-size="10px" fill="#000" opacity="1">0.3</text><text text-anchor="end" transform="translate(-7,183)" font-family="sans-serif" font-size="10px" fill="#000" opacity="1">0.4</text><text text-anchor="end" transform="translate(-7,153)" font-family="sans-serif" font-size="10px" fill="#000" opacity="1">0.5</text><text text-anchor="end" transform="translate(-7,123)" font-family="sans-serif" font-size="10px" fill="#000" opacity="1">0.6</text><text text-anchor="end" transform="translate(-7,93.00000000000001)" font-family="sans-serif" font-size="10px" fill="#000" opacity="1">0.7</text><text text-anchor="end" transform="translate(-7,62.999999999999986)" font-family="sans-serif" font-size="10px" fill="#000" opacity="1">0.8</text><text text-anchor="end" transform="translate(-7,32.99999999999999)" font-family="sans-serif" font-size="10px" fill="#000" opacity="1">0.9</text><text text-anchor="end" transform="translate(-7,3)" font-family="sans-serif" font-size="10px" fill="#000" opacity="1">1.0</text></g><g class="mark-rule role-axis-domain" pointer-events="none"><line transform="translate(0,300)" x2="0" y2="-300" stroke="#888" stroke-width="1" opacity="1"/></g><g class="mark-text role-axis-title" pointer-events="none"><text text-anchor="middle" transform="translate(-24.9013671875,150) rotate(-90) translate(0,-2)" font-family="sans-serif" font-size="11px" font-weight="bold" fill="#000" opacity="1">Count of Records</text></g></g><path class="foreground" aria-hidden="true" d="" pointer-events="none" display="none"/></g></g><g class="mark-rect role-mark marks" role="graphics-symbol" aria-roledescription="rect mark container"><path d="M15.961538461538463,0h5v300h-5Z" fill="green" opacity="0.7"/><path d="M28.26923076923077,5.579399141630892h5v294.4206008583691h-5Z" fill="green" opacity="0.7"/><path d="M28.26923076923077,0h5v5.579399141630892h-5Z" fill="orange" opacity="0.7"/><path d="M40.57692307692308,3.541912632821731h5v296.4580873671783h-5Z" fill="green" opacity="0.7"/><path d="M40.57692307692308,0h5v3.541912632821731h-5Z" fill="orange" opacity="0.7"/><path d="M46.73076923076923,3.253796095444661h5v296.74620390455533h-5Z" fill="green" opacity="0.7"/><path d="M46.73076923076923,0h5v3.253796095444661h-5Z" fill="orange" opacity="0.7"/><path d="M52.88461538461539,6.392045454545436h5v293.60795454545456h-5Z" fill="green" opacity="0.7"/><path d="M52.88461538461539,0h5v6.392045454545436h-5Z" fill="orange" opacity="0.7"/><path d="M65.1923076923077,7.440944881889777h5v292.5590551181102h-5Z" fill="green" opacity="0.7"/><path d="M65.1923076923077,0h5v7.440944881889777h-5Z" fill="orange" opacity="0.7"/><path d="M89.8076923076923,10.079479768786149h5v289.92052023121386h-5Z" fill="green" opacity="0.7"/><path d="M89.8076923076923,0h5v10.079479768786149h-5Z" fill="orange" opacity="0.7"/><path d="M102.11538461538463,15.589660743134083h5v284.41033925686594h-5Z" fill="green" opacity="0.7"/><path d="M102.11538461538463,0h5v15.589660743134083h-5Z" fill="orange" opacity="0.7"/><path d="M114.42307692307693,27.446808510638288h5v272.5531914893617h-5Z" fill="green" opacity="0.7"/><path d="M114.42307692307693,0h5v27.446808510638288h-5Z" fill="orange" opacity="0.7"/><path d="M126.73076923076923,30.094466936572182h5v269.9055330634278h-5Z" fill="green" opacity="0.7"/><path d="M126.73076923076923,0h5v30.094466936572182h-5Z" fill="orange" opacity="0.7"/><path d="M139.03846153846155,25.484180249280918h5v274.51581975071906h-5Z" fill="green" opacity="0.7"/><path d="M139.03846153846155,0h5v25.484180249280918h-5Z" fill="orange" opacity="0.7"/><path d="M175.96153846153848,30.547998445394477h5v269.45200155460554h-5Z" fill="green" opacity="0.7"/><path d="M175.96153846153848,0h5v30.547998445394477h-5Z" fill="orange" opacity="0.7"/><path d="M188.26923076923077,33.30396475770924h5v266.69603524229075h-5Z" fill="green" opacity="0.7"/><path d="M188.26923076923077,0h5v33.30396475770924h-5Z" fill="orange" opacity="0.7"/><path d="M200.57692307692307,36.85714285714287h5v263.1428571428571h-5Z" fill="green" opacity="0.7"/><path d="M200.57692307692307,0h5v36.85714285714287h-5Z" fill="orange" opacity="0.7"/><path d="M212.8846153846154,37.599337748344375h5v262.4006622516556h-5Z" fill="green" opacity="0.7"/><path d="M212.8846153846154,0h5v37.599337748344375h-5Z" fill="orange" opacity="0.7"/><path d="M225.19230769230768,0h5v41.97805692478934h-5Z" fill="orange" opacity="0.7"/><path d="M225.19230769230768,41.97805692478934h5v258.02194307521063h-5Z" fill="green" opacity="0.7"/><path d="M237.5,44.125480911512284h5v255.87451908848772h-5Z" fill="green" opacity="0.7"/><path d="M237.5,0h5v44.125480911512284h-5Z" fill="orange" opacity="0.7"/><path d="M249.8076923076923,0h5v46.498530852105766h-5Z" fill="orange" opacity="0.7"/><path d="M249.8076923076923,46.498530852105766h5v253.50146914789423h-5Z" fill="green" opacity="0.7"/><path d="M262.1153846153846,61.713576158940405h5v238.2864238410596h-5Z" fill="green" opacity="0.7"/><path d="M262.1153846153846,0h5v61.713576158940405h-5Z" fill="orange" opacity="0.7"/><path d="M274.4230769230769,64.0868334119868h5v235.9131665880132h-5Z" fill="green" opacity="0.7"/><path d="M274.4230769230769,0h5v64.0868334119868h-5Z" fill="orange" opacity="0.7"/><path d="M286.7307692307692,68.37037037037037h5v231.62962962962962h-5Z" fill="green" opacity="0.7"/><path d="M286.7307692307692,0h5v68.37037037037037h-5Z" fill="orange" opacity="0.7"/><path d="M299.03846153846155,75.86622476649593h5v224.13377523350408h-5Z" fill="green" opacity="0.7"/><path d="M299.03846153846155,0h5v75.86622476649593h-5Z" fill="orange" opacity="0.7"/><path d="M311.34615384615387,86.00283486888729h5v213.9971651311127h-5Z" fill="green" opacity="0.7"/><path d="M311.34615384615387,0h5v86.00283486888729h-5Z" fill="orange" opacity="0.7"/><path d="M317.5,89.17995444191344h5v210.82004555808658h-5Z" fill="green" opacity="0.7"/><path d="M317.5,0h5v89.17995444191344h-5Z" fill="orange" opacity="0.7"/><path d="M323.65384615384613,102.45941012585261h5v197.54058987414737h-5Z" fill="green" opacity="0.7"/><path d="M323.65384615384613,0h5v102.45941012585261h-5Z" fill="orange" opacity="0.7"/><path d="M329.8076923076923,0h5v107.58057194734452h-5Z" fill="orange" opacity="0.7"/><path d="M329.8076923076923,107.58057194734452h5v192.41942805265546h-5Z" fill="green" opacity="0.7"/><path d="M335.96153846153845,114.90196078431374h5v185.09803921568624h-5Z" fill="green" opacity="0.7"/><path d="M335.96153846153845,3.3306690738754696e-14h5v114.90196078431372h-5Z" fill="orange" opacity="0.7"/><path d="M342.11538461538464,109.50617283950618h5v190.49382716049382h-5Z" fill="green" opacity="0.7"/><path d="M342.11538461538464,0h5v109.50617283950618h-5Z" fill="orange" opacity="0.7"/><path d="M348.2692307692308,0h5v122.68118663161847h-5Z" fill="orange" opacity="0.7"/><path d="M348.2692307692308,122.68118663161847h5v177.31881336838154h-5Z" fill="green" opacity="0.7"/><path d="M354.42307692307696,0h5v114.33691756272401h-5Z" fill="orange" opacity="0.7"/><path d="M354.42307692307696,114.33691756272401h5v185.663082437276h-5Z" fill="green" opacity="0.7"/><path d="M360.5769230769231,127.2727272727273h5v172.7272727272727h-5Z" fill="green" opacity="0.7"/><path d="M360.5769230769231,0h5v127.2727272727273h-5Z" fill="orange" opacity="0.7"/><path d="M366.7307692307692,0h5v121.55172413793103h-5Z" fill="orange" opacity="0.7"/><path d="M366.7307692307692,121.55172413793103h5v178.44827586206895h-5Z" fill="green" opacity="0.7"/><path d="M372.88461538461536,132.96453900709218h5v167.03546099290782h-5Z" fill="green" opacity="0.7"/><path d="M372.88461538461536,0h5v132.96453900709218h-5Z" fill="orange" opacity="0.7"/><path d="M379.03846153846155,0h5v119.4257355547678h-5Z" fill="orange" opacity="0.7"/><path d="M379.03846153846155,119.4257355547678h5v180.5742644452322h-5Z" fill="green" opacity="0.7"/><path d="M385.1923076923077,135.29411764705884h5v164.70588235294116h-5Z" fill="green" opacity="0.7"/><path d="M385.1923076923077,0h5v135.29411764705884h-5Z" fill="orange" opacity="0.7"/></g><g class="mark-group role-legend" role="graphics-symbol" aria-roledescription="legend" aria-label="Symbol legend titled 'sexo' for fill color with 2 values: F, M"><g transform="translate(418,0)"><path class="background" aria-hidden="true" d="M0,0h26v40h-26Z" pointer-events="none"/><g><g class="mark-group role-legend-entry"><g transform="translate(0,16)"><path class="background" aria-hidden="true" d="M0,0h0v0h0Z" pointer-events="none"/><g><g class="mark-group role-scope" role="graphics-object" aria-roledescription="group mark container"><g transform="translate(0,0)"><path class="background" aria-hidden="true" d="M0,0h24.330078125v11h-24.330078125Z" pointer-events="none" opacity="1"/><g><g class="mark-symbol role-legend-symbol" pointer-events="none"><path transform="translate(6,6)" d="M-5,-5h10v10h-10Z" fill="orange" stroke-width="1.5" opacity="0.7"/></g><g class="mark-text role-legend-label" pointer-events="none"><text text-anchor="start" transform="translate(16,9)" font-family="sans-serif" font-size="10px" fill="#000" opacity="1">F</text></g></g><path class="foreground" aria-hidden="true" d="" pointer-events="none" display="none"/></g><g transform="translate(0,13)"><path class="background" aria-hidden="true" d="M0,0h24.330078125v11h-24.330078125Z" pointer-events="none" opacity="1"/><g><g class="mark-symbol role-legend-symbol" pointer-events="none"><path transform="translate(6,6)" d="M-5,-5h10v10h-10Z" fill="green" stroke-width="1.5" opacity="0.7"/></g><g class="mark-text role-legend-label" pointer-events="none"><text text-anchor="start" transform="translate(16,9)" font-family="sans-serif" font-size="10px" fill="#000" opacity="1">M</text></g></g><path class="foreground" aria-hidden="true" d="" pointer-events="none" display="none"/></g></g></g><path class="foreground" aria-hidden="true" d="" pointer-events="none" display="none"/></g></g><g class="mark-text role-legend-title" pointer-events="none"><text text-anchor="start" transform="translate(0,9)" font-family="sans-serif" font-size="11px" font-weight="bold" fill="#000" opacity="1">sexo</text></g></g><path class="foreground" aria-hidden="true" d="" pointer-events="none" display="none"/></g></g></g><path class="foreground" aria-hidden="true" d="" display="none"/></g></g></g></svg>